<?xml version="1.0" encoding="UTF-8" ?>
<!DOCTYPE svg PUBLIC "-//W3C//DTD SVG 1.1//EN" "http://www.w3.org/Graphics/SVG/1.1/DTD/svg11.dtd">
<svg width="256pt" height="256pt" viewBox="0 0 256 256" version="1.1" xmlns="http://www.w3.org/2000/svg">
<path fill="#ffffff" d=" M 0.00 0.00 L 256.00 0.00 L 256.00 256.00 L 0.00 256.00 L 0.00 0.00 Z" />
<path fill="#020203" d=" M 144.58 4.62 C 149.49 6.19 152.08 11.11 154.30 15.39 C 146.05 17.21 138.93 22.33 130.55 23.53 C 129.15 23.79 127.77 24.22 127.56 25.84 C 133.33 26.00 138.95 27.46 144.71 27.77 C 149.07 25.61 153.17 22.92 157.08 20.03 C 159.84 18.01 164.38 19.56 165.27 22.89 C 162.32 23.40 159.63 22.30 157.05 21.03 C 155.28 22.29 156.73 24.35 156.72 26.05 C 157.17 27.61 155.67 28.57 154.91 29.68 C 155.51 29.96 156.71 30.51 157.30 30.78 C 156.48 33.34 155.99 35.97 155.75 38.65 C 154.84 40.50 152.60 39.78 150.95 40.12 C 150.94 44.08 150.01 48.76 153.14 51.87 C 157.18 55.88 163.26 56.78 167.70 60.27 C 175.28 66.27 176.13 76.63 180.05 84.89 C 181.41 90.61 183.39 96.73 181.68 102.58 C 180.63 105.08 178.52 106.88 177.12 109.16 C 173.97 114.21 169.08 117.80 165.30 122.33 C 163.41 124.68 164.05 127.80 163.61 130.57 C 162.83 132.63 161.34 134.28 160.29 136.19 C 161.41 135.74 162.53 135.29 163.64 134.81 C 162.19 137.86 164.04 140.89 163.97 144.01 C 163.93 149.74 166.10 155.23 165.93 160.98 C 165.80 163.67 166.41 166.28 167.21 168.83 C 163.56 171.87 165.49 176.93 164.34 181.01 C 165.51 185.15 164.71 189.67 161.37 192.59 C 159.97 196.71 160.23 201.38 159.65 205.73 C 158.10 214.16 156.13 222.52 154.94 231.01 C 155.32 234.84 158.25 237.77 160.53 240.67 C 157.46 239.48 154.03 239.46 151.77 242.17 C 152.69 243.59 153.54 245.07 154.53 246.45 C 156.08 245.41 157.66 244.41 159.33 243.57 C 158.53 245.32 157.59 246.99 156.63 248.65 C 159.60 250.83 162.87 249.32 166.10 248.79 C 166.15 248.08 166.25 246.66 166.31 245.94 C 167.72 247.02 170.19 247.68 169.39 249.95 C 171.17 250.77 173.49 250.92 174.55 252.79 C 172.54 252.77 170.54 252.09 168.55 252.54 C 164.60 253.14 160.53 252.55 156.65 253.69 C 154.34 254.36 152.00 253.63 149.73 253.18 C 144.57 252.87 139.56 251.42 134.34 251.74 C 136.83 250.84 139.40 250.11 142.03 249.79 C 142.35 246.85 143.24 243.98 143.10 241.00 C 142.87 237.28 144.47 233.75 144.27 230.03 C 144.53 223.18 143.94 216.39 142.35 209.73 C 142.10 204.52 141.61 199.14 142.83 194.02 C 140.98 192.90 139.16 191.73 137.39 190.49 C 133.13 182.14 132.01 172.67 129.05 163.87 C 125.24 164.09 120.93 163.06 117.72 165.72 C 112.08 168.38 108.11 173.27 103.86 177.65 C 102.60 177.25 101.33 176.90 100.05 176.57 C 97.95 179.45 99.84 182.76 100.04 185.89 C 101.04 193.44 104.15 200.88 102.89 208.59 C 101.49 209.02 100.10 209.48 98.72 209.96 C 101.35 212.51 105.07 213.72 107.25 216.76 C 110.08 220.66 111.45 225.40 112.29 230.09 C 112.06 234.98 110.62 239.88 107.98 244.02 C 105.55 246.98 102.41 249.25 99.66 251.88 C 102.88 253.10 106.12 252.49 109.38 251.82 C 108.93 252.34 108.03 253.40 107.57 253.93 C 102.71 253.65 97.84 253.80 93.02 254.46 C 89.04 254.12 85.07 254.63 81.09 254.74 C 78.16 254.39 75.23 254.07 72.30 253.77 C 73.94 253.31 75.61 253.00 77.27 252.66 C 75.00 251.28 72.82 249.78 70.67 248.23 C 64.88 242.43 62.65 233.67 64.77 225.75 C 66.02 219.25 71.26 214.56 76.54 211.09 C 72.68 210.55 68.77 209.74 65.48 207.54 C 66.37 207.42 68.14 207.19 69.02 207.08 C 68.81 206.49 68.40 205.30 68.19 204.70 C 69.52 205.10 70.82 205.55 72.12 206.04 C 72.13 204.17 72.14 202.30 72.25 200.43 C 73.43 202.16 74.45 203.98 75.36 205.86 C 74.39 206.92 73.41 207.96 72.44 209.02 C 77.16 208.79 82.72 210.42 86.61 206.91 C 83.87 206.68 81.16 207.17 78.54 207.95 C 78.12 207.57 77.29 206.80 76.87 206.42 C 79.57 205.44 82.31 204.55 84.87 203.23 C 84.76 201.60 84.76 199.96 84.54 198.34 C 87.35 198.57 89.22 196.58 91.04 194.76 C 90.09 189.49 89.26 184.11 86.72 179.30 C 83.24 172.93 81.57 165.81 79.92 158.80 C 82.52 160.75 85.08 162.75 87.70 164.69 C 86.66 160.52 82.47 158.59 79.54 155.92 C 81.38 155.99 83.23 156.11 84.95 156.81 C 85.91 155.27 87.13 153.94 88.35 152.61 C 90.79 152.99 93.27 152.76 95.73 152.82 C 94.00 151.49 92.13 150.36 90.40 149.03 C 93.09 149.68 95.80 150.23 98.58 150.33 C 98.28 148.34 97.41 146.57 96.07 145.09 C 96.77 144.74 97.48 144.40 98.18 144.06 C 98.26 144.99 98.33 145.92 98.37 146.85 C 101.50 147.88 103.49 150.86 106.71 151.63 C 105.26 149.50 103.33 147.81 101.54 145.99 C 102.81 146.48 104.08 146.98 105.35 147.48 C 104.76 145.49 104.16 143.50 103.79 141.45 C 106.87 144.08 108.71 147.76 111.27 150.84 C 111.42 146.18 107.28 142.99 106.75 138.44 C 108.64 140.46 110.06 142.90 112.27 144.63 C 112.31 141.98 110.67 139.86 109.73 137.51 C 111.65 138.55 112.82 140.45 114.42 141.88 C 114.31 137.89 110.37 135.75 109.67 132.03 C 114.36 131.64 118.87 133.20 123.17 134.89 C 127.70 135.93 132.28 137.26 136.97 137.09 C 134.83 135.75 132.54 134.68 130.43 133.29 C 135.06 132.36 141.72 135.14 144.64 130.20 C 138.74 130.07 132.64 129.38 127.38 126.50 C 132.78 125.42 139.71 126.28 143.35 121.29 C 144.25 120.22 144.02 118.68 144.45 117.43 C 146.26 113.31 149.80 109.99 150.57 105.44 C 151.31 102.25 153.83 99.71 153.31 96.23 C 147.69 98.44 146.04 104.80 141.81 108.56 C 143.57 104.01 144.01 98.92 146.88 94.86 C 150.41 88.35 154.97 82.53 158.57 76.06 C 157.69 75.06 156.80 74.07 155.92 73.07 C 156.23 72.58 156.85 71.58 157.16 71.09 C 158.27 71.95 159.38 72.80 160.54 73.60 C 160.35 69.84 156.39 69.30 153.61 68.26 C 150.34 67.34 147.14 64.40 143.80 66.75 C 144.18 65.45 144.59 64.16 145.03 62.88 C 141.71 62.96 138.41 62.55 135.31 61.35 C 137.85 61.19 140.40 61.23 142.93 60.90 C 139.29 59.42 134.84 60.17 132.03 56.80 C 132.14 54.61 132.08 52.41 132.16 50.21 C 131.01 49.28 129.85 48.35 128.69 47.43 C 134.93 48.37 141.72 48.14 147.29 44.89 C 147.10 41.94 147.49 38.17 144.74 36.25 C 141.90 35.27 138.94 34.76 136.10 33.81 C 134.08 35.43 131.57 36.11 129.30 37.26 C 126.97 38.89 127.02 41.96 126.85 44.50 C 126.11 42.61 125.72 40.35 123.85 39.21 C 122.09 38.05 120.16 37.03 119.43 34.90 C 120.11 34.55 121.47 33.87 122.15 33.52 C 120.63 29.80 120.15 25.77 119.33 21.87 C 119.48 19.26 120.35 16.68 121.43 14.30 C 121.28 15.97 121.04 17.63 120.87 19.30 C 125.44 18.99 130.04 16.80 134.58 18.01 C 135.31 17.26 136.05 16.53 136.80 15.81 C 136.81 16.71 136.83 18.49 136.84 19.39 C 140.10 18.74 143.30 17.72 146.14 15.96 C 145.72 15.09 145.30 14.21 144.90 13.34 C 143.38 12.88 141.95 12.18 140.59 11.37 C 142.40 9.41 144.44 7.48 144.58 4.62 Z" />
<path fill="#020203" d=" M 130.21 10.22 C 130.84 10.83 130.84 10.83 130.21 10.22 Z" />
<path fill="#020203" d=" M 133.22 40.91 C 135.48 39.93 137.87 39.26 140.27 38.74 C 140.25 42.42 135.57 40.60 133.22 40.91 Z" />
<path fill="#020203" d=" M 135.29 44.28 C 136.42 43.69 139.27 43.23 139.67 44.72 C 138.54 45.31 135.68 45.77 135.29 44.28 Z" />
<path fill="#020203" d=" M 128.10 56.23 C 131.37 56.41 126.57 59.24 128.10 56.23 Z" />
<path fill="#020203" d=" M 122.33 57.04 C 124.03 56.00 124.24 58.60 122.73 58.91 C 121.03 59.97 120.82 57.35 122.33 57.04 Z" />
<path fill="#ffffff" d=" M 146.17 63.21 C 146.85 63.89 146.85 63.89 146.17 63.21 Z" />
<path fill="#020203" d=" M 114.08 76.61 C 114.10 72.35 114.29 67.43 117.78 64.46 C 116.56 68.51 116.23 72.89 114.08 76.61 Z" />
<path fill="#020203" d=" M 111.25 72.61 C 112.35 75.93 113.53 79.44 116.15 81.90 C 115.86 80.10 115.43 78.34 115.04 76.57 C 116.04 77.17 117.05 77.77 118.07 78.36 C 117.05 82.86 116.97 87.49 116.00 91.99 C 116.60 93.98 118.47 95.67 117.94 97.89 C 117.31 100.83 116.54 103.75 115.59 106.61 C 114.17 109.50 111.84 111.95 111.14 115.18 C 110.56 118.29 108.33 120.70 107.00 123.50 C 106.63 116.68 107.95 109.98 108.23 103.20 C 109.14 99.36 112.00 96.24 111.24 92.04 C 109.46 92.00 107.68 91.97 105.91 91.94 C 105.80 88.33 106.84 84.87 107.55 81.37 C 107.78 82.52 108.23 84.80 108.46 85.95 C 110.39 81.70 109.63 76.93 111.25 72.61 Z" />
<path fill="#ffffff" d=" M 156.92 117.89 C 160.85 115.88 163.65 112.31 167.54 110.25 C 166.20 112.33 164.93 114.46 163.60 116.54 C 160.75 118.83 158.17 121.44 155.59 124.02 C 156.57 124.61 157.54 125.22 158.52 125.84 C 158.42 128.51 156.53 130.33 154.61 131.94 C 155.04 130.10 155.57 128.28 155.96 126.44 C 152.37 129.02 149.68 132.64 146.56 135.77 C 146.53 133.63 147.27 131.70 148.90 130.30 C 148.26 130.06 146.97 129.57 146.33 129.33 C 147.02 123.52 152.41 120.60 156.92 117.89 Z" />
<path fill="#020203" d=" M 120.34 127.16 C 121.67 126.69 123.86 126.35 124.83 127.60 C 124.31 129.25 120.36 128.55 120.34 127.16 Z" />
<path fill="#020203" d=" M 105.05 131.47 C 105.50 131.04 106.41 130.17 106.86 129.73 C 106.90 131.35 106.96 132.97 107.01 134.59 C 106.50 135.00 105.49 135.80 104.99 136.20 C 105.01 134.62 105.03 133.05 105.05 131.47 Z" />
<path fill="#020203" d=" M 102.14 138.30 C 103.39 137.74 104.77 140.02 103.01 140.25 C 101.60 140.86 100.44 138.75 102.14 138.30 Z" />
<path fill="#020203" d=" M 101.22 142.22 C 101.84 142.84 101.84 142.84 101.22 142.22 Z" />
<path fill="#020203" d=" M 90.24 146.14 C 91.66 145.23 94.62 145.79 94.96 147.55 C 93.60 147.31 90.48 147.80 90.24 146.14 Z" />
<path fill="#020203" d=" M 161.11 243.26 C 162.43 242.65 163.54 245.06 161.84 245.24 C 160.33 245.87 159.47 243.67 161.11 243.26 Z" />
<path fill="#020203" d=" M 117.25 251.99 C 118.98 250.84 120.91 251.69 122.77 251.86 C 124.38 251.55 125.97 251.11 127.60 250.87 C 124.76 253.94 120.78 252.37 117.25 251.99 Z" />
</svg>
